<?xml version="1.0" encoding="UTF-8"?>
<svg version="1.1" xmlns="http://www.w3.org/2000/svg" width="1280" height="823">
<path d="M0 0 C3.3 0 6.6 0 10 0 C19.61880813 25.94783891 29.07045648 51.95498187 38.4808197 77.97903442 C38.92800858 79.21571869 39.37519745 80.45240295 39.8359375 81.7265625 C40.27986343 82.95430389 40.72378937 84.18204529 41.1811676 85.44699097 C45.4232424 97.17619247 49.68577522 108.89789838 53.95321655 120.6178894 C57.95481257 131.6089483 61.94402493 142.60437884 65.91796875 153.60546875 C67.67423025 158.46623582 69.43073156 163.32691613 71.1875 168.1875 C71.62915497 169.40951111 72.07080994 170.63152222 72.52584839 171.89056396 C79.55833199 191.3400336 86.6880064 210.75216697 93.86642456 230.14819336 C98.80200362 243.4906119 103.68455453 256.84958793 108.44921875 270.25390625 C108.6733098 270.88392296 108.89740086 271.51393967 109.12828255 272.16304779 C111.48502416 278.78998628 113.83251188 285.42010056 116.16625977 292.05517578 C129.06421726 334.84783543 129.06421726 334.84783543 157.2265625 367.24609375 C170.3404661 373.3974609 184.64092934 374.04016957 198.2890625 369.1875 C205.38820211 366.07779043 208.97190528 361.01967411 212 354 C215.05913929 344.35706092 215.1480866 334.15013585 215.13371277 324.12974548 C215.13597833 322.96136519 215.13824388 321.79298489 215.14057809 320.58919913 C215.14578977 317.36816061 215.14656701 314.14715747 215.14538372 310.92611611 C215.14517873 307.44331412 215.15070781 303.9605203 215.15544128 300.47772217 C215.16372811 293.66161859 215.16649526 286.84552367 215.16705366 280.02941548 C215.16752987 274.48390414 215.16958986 268.93839565 215.17275429 263.39288521 C215.18155643 247.64523706 215.18617449 231.8975957 215.18542381 216.14994507 C215.18538386 215.30196955 215.1853439 214.45399402 215.18530273 213.58032227 C215.18526185 212.73130231 215.18522097 211.88228235 215.18517885 211.00753451 C215.18477278 197.2613689 215.19433374 183.51523074 215.2084411 169.76907306 C215.2228363 155.62999377 215.22970952 141.49092783 215.22884732 127.35184103 C215.22851638 119.42382336 215.23121812 111.49583445 215.24202538 103.56782341 C215.25117197 96.81509392 215.25327181 90.06240621 215.24651595 83.30967318 C215.24327125 79.87072172 215.24311887 76.43185022 215.2518692 72.99290657 C216.78142642 45.53504411 216.78142642 45.53504411 207.20703125 20.9453125 C200.4882817 14.6814106 193.27016553 12.09607199 184.13671875 11.68359375 C183.25048828 11.64169922 182.36425781 11.59980469 181.45117188 11.55664062 C180.53916016 11.51732422 179.62714844 11.47800781 178.6875 11.4375 C177.75615234 11.39431641 176.82480469 11.35113281 175.86523438 11.30664062 C173.57697723 11.20102876 171.28850682 11.10005565 169 11 C169 7.37 169 3.74 169 0 C189.72493924 -0.04695594 210.44986957 -0.08210345 231.17485142 -0.10362434 C240.80026095 -0.11388748 250.42563722 -0.12785149 260.05102539 -0.15087891 C268.45155914 -0.17096625 276.85206878 -0.18375237 285.25262588 -0.18817699 C289.69060408 -0.19075871 294.12851334 -0.19672002 298.56646919 -0.21146011 C317.13816974 -0.27074778 335.52746667 -0.21880703 354 2 C355.85923347 2.22325455 355.85923347 2.22325455 357.75602722 2.45101929 C360.49708965 2.80421377 363.21376443 3.22012854 365.9375 3.6875 C366.91291748 3.85483643 367.88833496 4.02217285 368.89331055 4.19458008 C397.52045667 9.40430389 422.85184629 19.70433 444 40 C444.94488281 40.87011719 445.88976562 41.74023438 446.86328125 42.63671875 C475.58432752 69.61723771 488.39645689 108.1709598 495 146 C495.24991699 147.43134277 495.24991699 147.43134277 495.50488281 148.89160156 C500.29630404 178.00717363 500.7588163 211.02999779 495 240 C494.80132324 241.00401855 494.60264648 242.00803711 494.39794922 243.04248047 C485.12285731 288.18126108 462.90049999 330.66638714 423.89599609 356.76806641 C394.45722849 375.89606297 360.07571438 384.04585442 325.22436523 384.20532227 C323.85336282 384.21493292 322.48236315 384.22494194 321.11136627 384.23531246 C317.37911588 384.26230684 313.64685318 384.28340008 309.91455913 384.30331039 C305.90522332 384.32559667 301.89592139 384.35297198 297.88661194 384.3795166 C290.10141338 384.43007501 282.31619177 384.4749883 274.53094631 384.51765215 C268.24181071 384.55217384 261.95269066 384.58883412 255.66357422 384.62667847 C187.10874246 385.0372717 118.55583574 385.12074317 50 385 C50 381.04 50 377.08 50 373 C51.7015625 372.74476563 51.7015625 372.74476563 53.4375 372.484375 C66.92045012 370.66251042 66.92045012 370.66251042 77.875 363.125 C82.07083837 356.95464946 82.76850245 351.02337857 81.65545654 343.74786377 C81.1560267 341.28698273 80.59166326 338.85251805 79.9921875 336.4140625 C79.77174774 335.50588776 79.55130798 334.59771301 79.32418823 333.66201782 C76.63085946 322.98726282 72.90580503 312.70296672 69.125 302.375 C68.43517365 300.46391107 67.74636958 298.55245284 67.05859375 296.640625 C64.38558058 289.22795688 61.68388948 281.82638164 58.93261719 274.44238281 C58.60582977 273.56329254 58.27904236 272.68420227 57.94235229 271.7784729 C57.32311882 270.11536315 56.70096621 268.45333648 56.07546997 266.79257202 C54 261.22132462 54 261.22132462 54 259 C12.42 259 -29.16 259 -72 259 C-72.99 262.63 -73.98 266.26 -75 270 C-75.60330131 271.8175019 -76.23239178 273.62722234 -76.91357422 275.41699219 C-77.2575827 276.32874207 -77.60159119 277.24049194 -77.95602417 278.17987061 C-78.49986252 279.59903778 -78.49986252 279.59903778 -79.0546875 281.046875 C-79.4381131 282.06114563 -79.8215387 283.07541626 -80.21658325 284.12042236 C-81.43129527 287.33211019 -82.65259027 290.54123498 -83.875 293.75 C-98.36892434 325.10630641 -98.36892434 325.10630641 -99.3125 357.92578125 C-96.46147081 363.86966801 -91.54067387 366.72601921 -85.4921875 368.90234375 C-78.45590354 370.96399546 -71.25436947 372.0196798 -64 373 C-64 376.63 -64 380.26 -64 384 C-97.99 384 -131.98 384 -167 384 C-167 380.37 -167 376.74 -167 373 C-165.19015625 372.43732422 -165.19015625 372.43732422 -163.34375 371.86328125 C-161.72898209 371.34693104 -160.11440902 370.82997123 -158.5 370.3125 C-157.70851562 370.06822266 -156.91703125 369.82394531 -156.1015625 369.57226562 C-142.41096604 365.13965448 -136.50425351 357.28501431 -129.9025116 344.94927979 C-122.9958143 331.27725485 -117.66380253 317.04244557 -112.375 302.6875 C-111.46128163 300.22709726 -110.54679254 297.76698063 -109.6315918 295.30712891 C-107.71272216 290.1463497 -105.79969758 284.98343909 -103.89111328 279.81884766 C-101.08042099 272.2133126 -98.25809648 264.61213722 -95.43359375 257.01171875 C-91.61984591 246.74669862 -87.81193979 236.47952652 -84.0078125 226.2109375 C-78.01592411 210.03738386 -72.01152935 193.86848626 -66.00494385 177.70038605 C-64.63992354 174.02603991 -63.27504683 170.35164043 -61.91015625 166.67724609 C-58.33090927 157.04172372 -54.75140432 147.40629718 -51.17189026 137.77087402 C-47.3233807 127.41135152 -43.47496935 117.05179255 -39.62679291 106.6921463 C-39.08556278 105.2351084 -38.54432847 103.77807206 -38.0030899 102.32103729 C-31.78527543 85.58241502 -25.56959431 68.84300433 -19.359375 52.1015625 C-19.09096487 51.37798805 -18.82255474 50.6544136 -18.54601097 49.90891266 C-15.97564153 42.97964585 -13.40554061 36.05027952 -10.83599663 29.12070656 C-10.13352696 27.22631845 -9.4309915 25.33195473 -8.72845459 23.43759155 C-7.87981674 21.14924758 -7.0312966 18.86085994 -6.18292236 16.57241821 C-4.1327 11.0441928 -2.07454088 5.51914744 0 0 Z M263 29 C263 136.91 263 244.82 263 356 C296.75618613 367.25206204 333.92185419 367.99152461 366.25 352.1875 C377.11391307 346.66510845 386.16490791 339.34505436 395 331 C396.10794922 329.98873047 396.10794922 329.98873047 397.23828125 328.95703125 C419.517138 307.86532495 432.17937728 277.51545516 438.25 247.9375 C438.40106201 247.20821289 438.55212402 246.47892578 438.70776367 245.72753906 C441.77009922 229.71979747 442.37498166 213.75275071 442.3125 197.5 C442.31034485 196.48876068 442.3081897 195.47752136 442.30596924 194.43563843 C442.13484895 144.30877045 432.11344036 91.26015055 395.52783203 54.48876953 C381.90421483 41.21347109 365.6309732 31.71007702 347.4375 26.25 C346.77782227 26.05124268 346.11814453 25.85248535 345.43847656 25.64770508 C334.59033203 22.56578579 323.87522635 21.61115402 312.625 21.625 C310.66457764 21.62632935 310.66457764 21.62632935 308.66455078 21.62768555 C292.74954925 21.81939738 278.41783447 25.14554138 263 29 Z M-8 89 C-11.43866471 96.41591546 -14.32428809 104.00336196 -17.1696167 111.65991211 C-18.0944815 114.14855644 -19.02266432 116.63594183 -19.95166016 119.12304688 C-21.02266299 121.99043717 -22.09342701 124.85791489 -23.16326904 127.72573853 C-26.65729761 137.09049866 -30.16538261 146.44996123 -33.67578125 155.80859375 C-33.9695849 156.59187609 -34.26338856 157.37515842 -34.56609535 158.18217659 C-36.06901665 162.18886191 -37.57206298 166.19550032 -39.07516479 170.20211792 C-40.55214317 174.13919841 -42.02882602 178.07638964 -43.50528431 182.0136652 C-44.07790222 183.54065917 -44.65055856 185.06763872 -45.2232542 186.59460354 C-46.60855736 190.28838551 -47.99320136 193.9824118 -49.37638855 197.67698669 C-51.84289201 204.26316992 -54.31776793 210.84575428 -56.82128906 217.41796875 C-57.24701202 218.53969482 -57.67273499 219.6614209 -58.11135864 220.81713867 C-58.89294762 222.87485934 -59.67839158 224.93112172 -60.46847534 226.9855957 C-60.97545456 228.32303833 -60.97545456 228.32303833 -61.49267578 229.6875 C-61.93294601 230.83798828 -61.93294601 230.83798828 -62.3821106 232.01171875 C-63.14838285 234.13046213 -63.14838285 234.13046213 -63 237 C-27.03 237 8.94 237 46 237 C45.32889135 233.64445677 44.7019016 230.8944363 43.56738281 227.74707031 C43.27404556 226.92816315 42.98070831 226.10925598 42.67848206 225.26553345 C42.35661423 224.37868866 42.0347464 223.49184387 41.703125 222.578125 C41.36220322 221.63061371 41.02128143 220.68310242 40.67002869 219.70687866 C39.53381467 216.55320196 38.39207909 213.40155704 37.25 210.25 C36.44562995 208.022656 35.64135113 205.79527905 34.8371582 203.56787109 C27.81459373 184.1447659 20.67234644 164.76592223 13.51586914 145.3918457 C6.58611102 126.62707281 -0.25186044 107.83081466 -7 89 C-7.33 89 -7.66 89 -8 89 Z " fill="#AE475D" transform="translate(316,227)"/>
<path d="M0 0 C422.07 0 844.14 0 1279 0 C1279 11.55 1279 23.1 1279 35 C856.93 35 434.86 35 0 35 C0 23.45 0 11.9 0 0 Z " fill="#326177" transform="translate(0,658)"/>
<path d="M0 0 C380.49 0 760.98 0 1153 0 C1153 11.55 1153 23.1 1153 35 C772.51 35 392.02 35 0 35 C0 23.45 0 11.9 0 0 Z " fill="#336078" transform="translate(63,702)"/>
<path d="M0 0 C342.21 0 684.42 0 1037 0 C1037 11.55 1037 23.1 1037 35 C694.79 35 352.58 35 0 35 C0 23.45 0 11.9 0 0 Z " fill="#336178" transform="translate(121,745)"/>
<path d="M0 0 C302.61 0 605.22 0 917 0 C917 11.88 917 23.76 917 36 C829.68550155 36.01705247 742.37100296 36.03303102 655.0565033 36.04234314 C653.76532176 36.0424812 652.47414023 36.04261925 651.14383199 36.04276149 C623.76982108 36.04568116 596.39581016 36.04840071 569.02179921 36.05087968 C555.27160254 36.0521251 541.52140588 36.05341008 527.77120922 36.05473244 C525.69700117 36.05493169 523.62279312 36.05512981 521.54858507 36.05532788 C489.59621219 36.05838906 457.64383969 36.06230011 425.69146729 36.06866455 C425.00409121 36.06880145 424.31671513 36.06893835 423.60850947 36.0690794 C412.52547019 36.07129186 401.44243092 36.07357543 390.35939166 36.07586844 C344.04081011 36.08544988 297.72222965 36.09185226 251.40364703 36.09391499 C244.96696319 36.09420317 238.53027935 36.0945288 232.0935955 36.09487724 C230.82669709 36.09494467 229.55979867 36.09501209 228.25450939 36.09508156 C207.81697365 36.09626573 187.37944007 36.1009104 166.94190521 36.10683203 C146.42192723 36.11270433 125.90195141 36.11497174 105.38197262 36.11350138 C93.1734714 36.11273771 80.96497804 36.11479596 68.75647823 36.12079754 C60.61735842 36.12452722 52.4782438 36.12467803 44.33912364 36.12183181 C39.69124453 36.12031151 35.04338036 36.12042946 30.39550281 36.12488318 C26.17693613 36.12889513 21.95839621 36.12840396 17.73983 36.12413998 C16.21384603 36.1234189 14.68786016 36.12441618 13.16187863 36.12723524 C11.10712768 36.13079392 9.05236833 36.12770931 6.9976173 36.1241985 C5.28331225 36.12443247 5.28331225 36.12443247 3.53437478 36.12467116 C1 36 1 36 0 35 C0 23.45 0 11.9 0 0 Z " fill="#336177" transform="translate(181,787)"/>
<path d="M0 0 C3.46679688 0.04882812 3.46679688 0.04882812 6.93359375 0.09765625 C10.13311304 6.97293171 12.79846044 13.98131252 15.35546875 21.1171875 C15.77217834 22.27151779 16.18888794 23.42584808 16.6182251 24.61515808 C17.51143602 27.0906623 18.4034785 29.56654858 19.29345703 32.04321289 C20.70532242 35.97207155 22.12176863 39.89926873 23.5390625 43.82617188 C24.97940738 47.81741859 26.41959448 51.80872111 27.85827637 55.80056763 C31.86156412 66.90756342 35.89221337 78.0044701 39.93359375 89.09765625 C44.25392488 100.96098451 48.5621082 112.82859387 52.8515625 124.703125 C62.10881212 150.32444328 71.42890386 175.91999603 80.87545776 201.47216797 C87.24470093 218.7081398 93.50478909 235.98005801 99.68359375 253.28515625 C105.39955075 269.27880941 111.12874877 285.26729821 116.9786377 301.21255493 C117.68099989 303.1295623 118.38092202 305.04746604 119.07800293 306.96640015 C122.6360028 316.75287914 126.38477352 326.4056231 130.63671875 335.9140625 C130.99678009 336.72142349 131.35684143 337.52878448 131.72781372 338.36061096 C136.18476509 348.13313661 141.5828073 359.20646309 150.93359375 365.09765625 C151.63613281 365.54367187 152.33867188 365.9896875 153.0625 366.44921875 C160.25861493 370.50370196 167.88454394 371.77761208 175.93359375 373.09765625 C175.93359375 377.05765625 175.93359375 381.01765625 175.93359375 385.09765625 C133.36359375 385.09765625 90.79359375 385.09765625 46.93359375 385.09765625 C46.93359375 381.13765625 46.93359375 377.17765625 46.93359375 373.09765625 C48.25810547 372.95070313 48.25810547 372.95070313 49.609375 372.80078125 C63.56850887 371.4072245 63.56850887 371.4072245 74.99609375 364.09765625 C80.15607476 356.10800824 80.06713534 348.16257989 78.1640625 338.97265625 C71.78996651 312.03656921 60.48713192 285.81872055 50.93359375 260.09765625 C9.68359375 260.09765625 -31.56640625 260.09765625 -74.06640625 260.09765625 C-95.79316212 303.14177812 -95.79316212 303.14177812 -102.12109375 357.43359375 C-97.62681514 365.03712171 -91.93296128 367.80996485 -83.6484375 370.21484375 C-78.17267647 371.564377 -72.65898761 372.40201601 -67.06640625 373.09765625 C-67.06640625 376.72765625 -67.06640625 380.35765625 -67.06640625 384.09765625 C-101.05640625 384.09765625 -135.04640625 384.09765625 -170.06640625 384.09765625 C-170.06640625 380.46765625 -170.06640625 376.83765625 -170.06640625 373.09765625 C-168.94363281 372.80632812 -167.82085938 372.515 -166.6640625 372.21484375 C-152.46664632 368.39313337 -143.95612334 364.05373242 -136.06640625 351.09765625 C-124.57254096 330.79314287 -117.06212995 308.35272666 -109.02142715 286.53549194 C-107.601761 282.68652211 -106.1770378 278.8394251 -104.75268555 274.9921875 C-102.67284293 269.37337624 -100.59431048 263.75408399 -98.51750469 258.13414955 C-94.81842429 248.12481769 -91.10803183 238.11972638 -87.390625 228.1171875 C-87.12037003 227.3899819 -86.85011505 226.6627763 -86.57167053 225.91353416 C-85.4854657 222.99087741 -84.39918262 220.06824975 -83.31277847 217.14566708 C-80.3293567 209.11982547 -77.34810589 201.09317793 -74.3671875 193.06640625 C-74.10179672 192.35180552 -73.83640594 191.63720478 -73.56297302 190.90094948 C-67.89342782 175.63467713 -62.22944357 160.36634364 -56.56640625 145.09765625 C-47.1582451 119.73148643 -37.74502119 94.36719782 -28.32055664 69.00708008 C-27.5136073 66.83562848 -26.70665913 64.66417645 -25.89971352 62.49272346 C-25.372096 61.07294323 -24.84446624 59.65316756 -24.31682396 58.23339653 C-21.24548889 49.9687822 -18.17789128 41.70280688 -15.11726379 33.43421936 C-13.59301912 29.31676205 -12.06690675 25.19999853 -10.54049683 21.08334351 C-9.85617484 19.23607505 -9.17282562 17.38844591 -8.49050903 15.54043579 C-7.57942521 13.07292785 -6.6651278 10.60663538 -5.75 8.140625 C-5.48782684 7.42772308 -5.22565369 6.71482117 -4.95553589 5.98031616 C-2.77823508 0.13129655 -2.77823508 0.13129655 0 0 Z M-11.06640625 88.09765625 C-24.39213934 123.56262021 -37.70023251 159.03424117 -50.91046143 194.54241943 C-52.05329524 197.61418588 -53.19734853 200.68549369 -54.34246826 203.75640869 C-55.69184889 207.37542527 -57.03857331 210.99541908 -58.38321877 214.61619759 C-58.87519454 215.93974877 -59.36804385 217.26297565 -59.86185265 218.58584404 C-60.53742989 220.39622591 -61.20934615 222.20797265 -61.88110352 224.01977539 C-62.4451162 225.53602257 -62.4451162 225.53602257 -63.02052307 227.082901 C-64.16414737 230.37939473 -65.1078402 233.74267509 -66.06640625 237.09765625 C-29.76640625 237.09765625 6.53359375 237.09765625 43.93359375 237.09765625 C38.68663365 221.93977151 33.43980214 206.82651946 27.87432861 191.78985596 C25.95614703 186.60677795 24.04710444 181.42033034 22.13671875 176.234375 C21.72857941 175.12707031 21.32044006 174.01976562 20.89993286 172.87890625 C15.67896478 158.70633036 10.50370431 144.51704921 5.32688141 130.32830429 C4.56386835 128.23711236 3.80072562 126.14596781 3.03753662 124.05484009 C-1.33607307 112.07115912 -5.70942596 100.08739614 -10.06640625 88.09765625 C-10.39640625 88.09765625 -10.72640625 88.09765625 -11.06640625 88.09765625 Z " fill="#AE475D" transform="translate(960.06640625,226.90234375)"/>
<path d="M0 0 C4.18459301 1.72841885 6.20718739 3.84822343 8 8 C8.41665567 12.66654354 7.82722775 15.74860158 6 20 C9.47595977 20.42822088 12.9555365 20.81149244 16.4375 21.1875 C17.41138672 21.30802734 18.38527344 21.42855469 19.38867188 21.55273438 C25.99032186 22.23718638 30.90548346 21.67152975 37 19 C37 23.60562414 34.61721091 25.854385 31.58007812 29.15576172 C27.53376933 32.0480608 24.36698741 31.44648051 19.60546875 30.72460938 C18.49816406 30.50611328 17.39085937 30.28761719 16.25 30.0625 C14.02613235 29.69866402 11.80217756 29.33536016 9.578125 28.97265625 C8.60262695 28.78968994 7.62712891 28.60672363 6.62207031 28.41821289 C3.78419014 27.89499576 3.78419014 27.89499576 0 28 C-0.33 28.99 -0.66 29.98 -1 31 C0.76563979 32.65172755 2.53704598 34.29638045 4.3125 35.9375 C4.81201172 36.40607422 5.31152344 36.87464844 5.82617188 37.35742188 C8.21561016 39.55697103 9.88080438 40.96026813 13 42 C15.67676547 40.62750037 15.67676547 40.62750037 18 39 C18 43.26308255 15.52272041 45.11692552 12.75 48.0625 C12.01330078 48.87557617 12.01330078 48.87557617 11.26171875 49.70507812 C8.73050246 52.43541676 6.51053264 54.65429582 3 56 C3.27714844 54.80503906 3.55429688 53.61007813 3.83984375 52.37890625 C4.30511701 48.59762462 4.12388074 48.17429482 1.75390625 44.83984375 C0.71287544 43.84793388 -0.35247785 42.88108745 -1.4375 41.9375 C-1.99083008 41.42292236 -2.54416016 40.90834473 -3.11425781 40.37817383 C-4.72210672 38.89355592 -6.35533642 37.44358531 -8 36 C-8.75925781 35.31421875 -9.51851562 34.6284375 -10.30078125 33.921875 C-11.56207146 32.79960475 -12.83744009 31.69287789 -14.12890625 30.60546875 C-15.48587054 29.4411424 -16.80167557 28.22829361 -18.08984375 26.98828125 C-19.12818359 26.00408203 -19.12818359 26.00408203 -20.1875 25 C-20.79980469 24.401875 -21.41210938 23.80375 -22.04296875 23.1875 C-23.98748007 21.73141854 -23.98748007 21.73141854 -26.55078125 22.3125 C-27.76314453 22.6528125 -27.76314453 22.6528125 -29 23 C-29.99 23 -30.98 23 -32 23 C-28.7894276 17.7254882 -24.88093077 13.5798908 -20.5 9.25 C-19.83613281 8.57839844 -19.17226562 7.90679687 -18.48828125 7.21484375 C-17.84246094 6.57160156 -17.19664062 5.92835938 -16.53125 5.265625 C-15.94923828 4.68586914 -15.36722656 4.10611328 -14.76757812 3.50878906 C-10.1950742 -0.39425987 -5.80164282 -0.66423102 0 0 Z M-16 10 C-17.80796103 12.56610666 -17.80796103 12.56610666 -19 15 C-14.84792208 19.2626362 -10.63678779 23.26795129 -6 27 C-2.16031141 25.5435664 -0.68993538 23.71785783 1 20 C1.71258074 15.81358814 1.20532709 14.32976775 -1.0625 10.6875 C-6.00173548 6.16862499 -10.77898267 5.64915223 -16 10 Z " fill="#326076" transform="translate(190,190)"/>
<path d="M0 0 C7.49461783 7.03795653 16.92411703 18.44807083 18 29 C17.78798239 33.22520811 16.6979695 36.19938793 13.875 39.4375 C10.23771881 41.41428326 7.14733233 42.24348331 3 42 C-0.375 40.5625 -0.375 40.5625 -3 39 C-3.66 39 -4.32 39 -5 39 C-6.01540138 41.82861813 -7.0123739 44.66168714 -8 47.5 C-8.28617188 48.29148437 -8.57234375 49.08296875 -8.8671875 49.8984375 C-11.00878187 56.11925924 -12.14357911 61.56926266 -10 68 C-12.6424553 67.62415844 -13.84696155 67.14510557 -15.80859375 65.28515625 C-20.07013129 59.4702525 -20.07013129 59.4702525 -19.890625 55.70703125 C-19.08987743 53.05121847 -18.07325479 50.55850092 -17 48 C-16.06447817 45.40895101 -15.19016486 42.79859263 -14.3125 40.1875 C-13.87550781 38.94355469 -13.43851563 37.69960938 -12.98828125 36.41796875 C-12.10814369 33.37401474 -11.7792764 31.13188892 -12 28 C-13.75129657 29.10210905 -15.50098464 30.20677432 -17.25 31.3125 C-18.22453125 31.92738281 -19.1990625 32.54226563 -20.203125 33.17578125 C-22.54733713 34.70475759 -24.78784032 36.28820977 -27 38 C-26.67 40.64 -26.34 43.28 -26 46 C-30.56642429 44.4493407 -32.65813464 40.8397192 -35.3125 37.0625 C-35.77978516 36.42892578 -36.24707031 35.79535156 -36.72851562 35.14257812 C-37.90675744 33.48747035 -38.96328776 31.74724448 -40 30 C-39.505 28.515 -39.505 28.515 -39 27 C-38.1646875 27.7734375 -38.1646875 27.7734375 -37.3125 28.5625 C-35.12066011 30.24707109 -35.12066011 30.24707109 -32.66918945 29.7878418 C-29.63805355 28.89316737 -27.5766661 27.63027497 -24.98046875 25.83203125 C-23.56991211 24.86233398 -23.56991211 24.86233398 -22.13085938 23.87304688 C-21.15955078 23.19306641 -20.18824219 22.51308594 -19.1875 21.8125 C-18.22779297 21.15185547 -17.26808594 20.49121094 -16.27929688 19.81054688 C-10.75953118 15.99380787 -5.33009766 12.077424 0 8 C-0.185625 6.865625 -0.37125 5.73125 -0.5625 4.5625 C-0.706875 3.386875 -0.85125 2.21125 -1 1 C-0.67 0.67 -0.34 0.34 0 0 Z M0.64453125 17.1875 C0.02255859 17.63867188 -0.59941406 18.08984375 -1.24023438 18.5546875 C-1.88283203 19.03164063 -2.52542969 19.50859375 -3.1875 20 C-4.16879883 20.71542969 -4.16879883 20.71542969 -5.16992188 21.4453125 C-6.78457682 22.62389275 -8.39290497 23.81113182 -10 25 C-9.04578192 26.14926266 -8.08647955 27.29430541 -7.125 28.4375 C-6.59132813 29.07558594 -6.05765625 29.71367187 -5.5078125 30.37109375 C-3.22494974 32.83729522 -2.10332096 32.99025274 1.3125 33.3125 C5.57536111 32.95124058 7.01992054 31.98007946 10 29 C11.55024464 25.89951072 11.28992015 23.42105782 11 20 C9.34294424 17.03070851 9.34294424 17.03070851 7 15 C3.71752569 15 3.17433033 15.33076673 0.64453125 17.1875 Z " fill="#326077" transform="translate(1153,251)"/>
<path d="M0 0 C5.00018416 0.64518505 9.82273056 2.15742409 14 5 C15.88801773 7.92571847 16.64883414 10.96192376 17.46875 14.32421875 C17.71999634 15.22622513 17.97124268 16.12823151 18.23010254 17.05757141 C19.02137186 19.926109 19.7614963 22.80497661 20.5 25.6875 C21.27839994 28.57674589 22.06679141 31.46314262 22.85559082 34.3495636 C23.34159667 36.14348336 23.81928271 37.93968118 24.28796387 39.73820496 C25.02297765 43.68481479 25.02297765 43.68481479 27 47 C28.70902169 43.11326022 30.38834822 39.21437181 32.0625 35.3125 C32.54783203 34.20970703 33.03316406 33.10691406 33.53320312 31.97070312 C33.98759766 30.90400391 34.44199219 29.83730469 34.91015625 28.73828125 C35.33433838 27.75899658 35.75852051 26.77971191 36.19555664 25.77075195 C37.09213851 22.68264645 36.98041016 21.0352289 36 18 C34.5420814 16.20614008 34.5420814 16.20614008 33 15 C37.27800976 13.57399675 39.86765922 15.54362936 43.6875 17.4375 C44.38939453 17.77587891 45.09128906 18.11425781 45.81445312 18.46289062 C47.54723706 19.29981348 49.27419752 20.14877393 51 21 C50.67 21.66 50.34 22.32 50 23 C47.69 22.67 45.38 22.34 43 22 C42.74621582 22.81098145 42.49243164 23.62196289 42.23095703 24.45751953 C40.78204288 28.62724272 39.06935152 32.6357726 37.3046875 36.6796875 C36.95238068 37.49245148 36.60007385 38.30521545 36.23709106 39.14260864 C35.11875531 41.72110498 33.9969332 44.29806721 32.875 46.875 C32.11305 48.63010796 31.35132879 50.38531526 30.58984375 52.140625 C28.72920889 56.42823782 26.86544722 60.71447887 25 65 C24.01 64.67 23.02 64.34 22 64 C21.14570618 62.17137146 21.14570618 62.17137146 20.46606445 59.75561523 C20.07599968 58.40432777 20.07599968 58.40432777 19.67805481 57.02574158 C19.40917953 56.04658279 19.14030426 55.06742401 18.86328125 54.05859375 C18.57897751 53.06118668 18.29467377 52.0637796 18.00175476 51.03614807 C17.09357687 47.83979146 16.20289585 44.63885058 15.3125 41.4375 C14.70101321 39.27376508 14.08839755 37.11034884 13.47460938 34.94726562 C11.969939 29.63514331 10.47961693 24.31915155 9 19 C7.89422255 21.19451381 6.79034708 23.38995151 5.6875 25.5859375 C5.37876953 26.19816162 5.07003906 26.81038574 4.75195312 27.44116211 C-0.76271934 36.93179732 -0.76271934 36.93179732 -2.8125 47.2109375 C-2.02400044 49.36548727 -2.02400044 49.36548727 1 51 C1 51.99 1 52.98 1 54 C-4.99932374 52.1668733 -10.44920563 49.92678249 -16 47 C-16 46.34 -16 45.68 -16 45 C-13.69 45 -11.38 45 -9 45 C-7.34037408 41.32206599 -5.68658945 37.64156406 -4.0378418 33.95874023 C-3.47786209 32.70999995 -2.91637636 31.46193376 -2.35327148 30.21459961 C2.38252553 19.81583449 2.38252553 19.81583449 6 9 C4.56674358 5.25760823 3.34591291 4.23060861 0 2 C0 1.34 0 0.68 0 0 Z " fill="#315F76" transform="translate(866,34)"/>
<path d="M0 0 C0.99 0 1.98 0 3 0 C3 2.31 3 4.62 3 7 C4.06992187 7.21914063 5.13984375 7.43828125 6.2421875 7.6640625 C20.21341815 10.55305516 34.10801695 13.75349512 48 17 C48 17.99 48 18.98 48 20 C46.40345581 20.79434448 46.40345581 20.79434448 44.7746582 21.60473633 C40.81334807 23.57631835 36.85337737 25.55057776 32.89379883 27.52563477 C31.18224729 28.3789014 29.47033688 29.23144858 27.75805664 30.08325195 C25.29217583 31.31010465 22.82761148 32.53956751 20.36328125 33.76953125 C19.60163162 34.14777542 18.83998199 34.52601959 18.05525208 34.91572571 C14.27306065 36.80662314 10.59014066 38.75654996 7 41 C13.39700327 43.30491019 19.76865821 44.9449042 26.4375 46.25 C27.33404297 46.435625 28.23058594 46.62125 29.15429688 46.8125 C30.00958984 46.98265625 30.86488281 47.1528125 31.74609375 47.328125 C32.51622803 47.4818457 33.2863623 47.63556641 34.07983398 47.79394531 C36.08266569 48.18370653 36.08266569 48.18370653 38 47 C39.13350534 44.98330173 39.13350534 44.98330173 40 43 C40.66 43 41.32 43 42 43 C40.07289294 55.66970387 40.07289294 55.66970387 38 61 C37.01 60.505 37.01 60.505 36 60 C35.375 56.9375 35.375 56.9375 35 54 C26.87068021 51.74585233 18.71278814 49.61650657 10.5 47.6875 C9.75959473 47.50413086 9.01918945 47.32076172 8.25634766 47.13183594 C3.57038776 46.0590061 -0.24377 45.78259609 -5 47 C-7.33414647 49.95849927 -7.33414647 49.95849927 -9 53 C-9.66 53 -10.32 53 -11 53 C-10.4140625 47.43359375 -10.4140625 47.43359375 -10 45 C-9.83693359 43.89462891 -9.67386719 42.78925781 -9.50585938 41.65039062 C-7.38165174 36.50104684 -4.38803917 35.42338623 0.5078125 33.16015625 C1.34843231 32.74833603 2.18905212 32.33651581 3.05514526 31.91221619 C5.73465283 30.6059683 8.42891219 29.3341171 11.125 28.0625 C12.94769028 27.18125789 14.76931987 26.29781831 16.58984375 25.41210938 C21.04800254 23.24907639 25.51968792 21.11674018 30 19 C27.19703117 17.554877 24.71960053 16.58300499 21.62890625 15.9296875 C20.80712891 15.75566406 19.98535156 15.58164062 19.13867188 15.40234375 C18.28853516 15.22832031 17.43839844 15.05429687 16.5625 14.875 C15.71623047 14.69324219 14.86996094 14.51148438 13.99804688 14.32421875 C8.04505979 12.97808196 8.04505979 12.97808196 2 13 C-0.33630748 15.39859044 -0.33630748 15.39859044 -2 18 C-3.51553092 14.02549507 -2.49888623 10.79518851 -1.5625 6.75 C-1.27503906 5.48671875 -0.98757812 4.2234375 -0.69140625 2.921875 C-0.46324219 1.95765625 -0.23507813 0.9934375 0 0 Z " fill="#326076" transform="translate(21,468)"/>
<path d="M0 0 C3.64720572 0.55621874 5.02019037 1.79107068 7.3125 4.625 C9.61097978 7.37925509 11.93159879 9.99508736 14.5 12.5 C17.68198222 15.62451979 20.61534733 18.91810479 23.51953125 22.30078125 C24.63171172 23.57729445 25.80283014 24.80283014 27 26 C26.79014782 28.64736593 26.21245709 29.77786261 24.37109375 31.703125 C23.73300781 32.21359375 23.09492187 32.7240625 22.4375 33.25 C21.47650391 34.03117187 21.47650391 34.03117187 20.49609375 34.828125 C20.00238281 35.21484375 19.50867187 35.6015625 19 36 C19 32 19 32 19.9375 29.25 C20.02528302 24.68528301 17.98713986 23.03840082 14.92578125 19.8359375 C12.72192239 17.73489558 10.46326584 15.79146607 8 14 C7.31164063 14.70576172 7.31164063 14.70576172 6.609375 15.42578125 C0.51493849 21.60984183 0.51493849 21.60984183 -3 24 C-1.81383364 28.48107292 0.55736185 31.09160862 4.046875 33.97265625 C6.22481584 35.36698721 6.22481584 35.36698721 9.9375 34.375 C10.948125 33.92125 11.95875 33.4675 13 33 C13 36 13 36 10.91796875 38.4453125 C10.01691406 39.32960937 9.11585937 40.21390625 8.1875 41.125 C7.29417969 42.01445312 6.40085937 42.90390625 5.48046875 43.8203125 C3 46 3 46 0 47 C-0.33 46.34 -0.66 45.68 -1 45 C-0.34 44.01 0.32 43.02 1 42 C1.07703001 38.61067957 0.55820778 36.66504181 -1.6328125 34.0546875 C-3.3767552 32.3107448 -5.15104858 30.63171169 -7 29 C-7.43570312 29.37511719 -7.87140625 29.75023437 -8.3203125 30.13671875 C-12.18607599 33.45859777 -16.07657648 36.74642927 -20 40 C-19.32845702 45.55998084 -16.74912393 48.34970379 -12.83203125 52.171875 C-7.84806407 55.38911175 -2.69948596 54.71353688 3 54 C3 54.99 3 55.98 3 57 C-2.94 59.475 -2.94 59.475 -9 62 C-15.90220286 55.19121041 -22.75000629 48.42186753 -29 41 C-29.5775 40.3503125 -30.155 39.700625 -30.75 39.03125 C-31.306875 38.4021875 -31.86375 37.773125 -32.4375 37.125 C-32.93121094 36.57070312 -33.42492188 36.01640625 -33.93359375 35.4453125 C-35 34 -35 34 -35 32 C-33.9171875 32.5259375 -33.9171875 32.5259375 -32.8125 33.0625 C-29.52339441 34.15886853 -28.27360217 34.0571007 -25 33 C-22.51423985 30.96126768 -22.51423985 30.96126768 -20.1875 28.375 C-17.1961324 25.2553045 -14.23109534 22.23705604 -10.9375 19.4375 C-6.37759616 15.53966809 -2.1955039 11.28291023 2 7 C1.34 4.69 0.68 2.38 0 0 Z " fill="#326076" transform="translate(1093,182)"/>
<path d="M0 0 C0.94921875 2.28515625 0.94921875 2.28515625 1.6875 5.0625 C1.93886719 5.98160156 2.19023437 6.90070312 2.44921875 7.84765625 C2.63097656 8.55792969 2.81273437 9.26820312 3 10 C2.01 10 1.02 10 0 10 C-0.46148437 9.33742188 -0.92296875 8.67484375 -1.3984375 7.9921875 C-2.80401649 5.76452395 -2.80401649 5.76452395 -5.1640625 5.7578125 C-5.97617187 5.87898438 -6.78828125 6.00015625 -7.625 6.125 C-8.5015625 6.25003906 -9.378125 6.37507813 -10.28125 6.50390625 C-14.22183559 7.22294989 -18.10614553 8.05793844 -22 9 C-20.02 14.61 -18.04 20.22 -16 26 C-8.37896768 24.48691585 -8.37896768 24.48691585 -2.53515625 19.953125 C-1.61247921 17.53184948 -1.61247921 17.53184948 -1 14 C1.47378124 16.47378124 2.03138231 18.56174345 3.125 21.875 C3.47820312 22.92429687 3.83140625 23.97359375 4.1953125 25.0546875 C5 28 5 28 5 32 C2 31 2 31 0 28 C-1.37523135 28.14363527 -2.75017402 28.29003517 -4.125 28.4375 C-4.89070313 28.51871094 -5.65640625 28.59992187 -6.4453125 28.68359375 C-9.30856218 29.03821642 -12.15412857 29.5256881 -15 30 C-13.02 35.94 -11.04 41.88 -9 48 C-0.02170242 46.82973939 -0.02170242 46.82973939 8 43 C9.95760041 39.81076353 11.07562457 36.61472182 12 33 C12.99 33 13.98 33 15 33 C14.67 37.62 14.34 42.24 14 47 C9.21463074 48.57218899 4.42742755 50.13861184 -0.36157227 51.69970703 C-1.99067125 52.2316511 -3.61925664 52.76517079 -5.24731445 53.30029297 C-7.58672165 54.06892478 -9.92791374 54.83188251 -12.26953125 55.59375 C-12.99775589 55.83436157 -13.72598053 56.07497314 -14.47627258 56.32287598 C-17.43575837 57.2806755 -19.86800518 58 -23 58 C-22.67 57.01 -22.34 56.02 -22 55 C-19.9375 54.3125 -19.9375 54.3125 -18 54 C-20.06108183 45.11349583 -22.69599576 36.51083829 -25.625 27.875 C-26.03234375 26.658125 -26.4396875 25.44125 -26.859375 24.1875 C-28.67282291 18.48998554 -28.67282291 18.48998554 -31 13 C-32.98 13 -34.96 13 -37 13 C-37 12.01 -37 11.02 -37 10 C-32.21650803 8.40372947 -27.42936043 6.8191593 -22.63842773 5.24536133 C-21.00878518 4.70820751 -19.38019245 4.16785782 -17.75268555 3.62426758 C-15.41462812 2.84396496 -13.07304984 2.07519178 -10.73046875 1.30859375 C-10.00224411 1.06282089 -9.27401947 0.81704803 -8.52372742 0.56382751 C-3.34161512 -1.11387171 -3.34161512 -1.11387171 0 0 Z " fill="#326077" transform="translate(462,20)"/>
<path d="M0 0 C4.5076467 0.53031138 7.41954788 2.25221116 11 5 C11 5.66 11 6.32 11 7 C10.12988281 6.87818359 10.12988281 6.87818359 9.2421875 6.75390625 C4.43856969 6.33503363 4.43856969 6.33503363 0.20703125 8.3125 C-3.13099406 12.15680678 -5.62108087 16.51665242 -8 21 C-3.71 23.97 0.58 26.94 5 30 C8.13111343 26.86888657 9.5143519 25.46924593 11.25 21.75 C11.58515625 21.04359375 11.9203125 20.3371875 12.265625 19.609375 C12.50796875 19.07828125 12.7503125 18.5471875 13 18 C12.484375 17.401875 11.96875 16.80375 11.4375 16.1875 C10.963125 15.465625 10.48875 14.74375 10 14 C10.33 13.01 10.66 12.02 11 11 C12.7541123 12.07666203 14.50312587 13.16163339 16.25 14.25 C17.71179688 15.15492188 17.71179688 15.15492188 19.203125 16.078125 C21.79705245 17.86054442 23.86377619 19.70101628 26 22 C22.98968256 22.93423645 22.13349732 23.04449911 19 22 C15.0747975 25.70090521 12.05419844 29.54959656 9 34 C9.556875 34.25394531 10.11375 34.50789063 10.6875 34.76953125 C14.25557618 36.6680853 17.35112219 39.19391764 20.5625 41.63671875 C22.83688044 43.16295804 22.83688044 43.16295804 25.078125 43.02734375 C29.52064114 40.65258411 31.82244769 35.36107051 34 31 C34.72117713 26.11202167 33.78415436 22.57189555 32 18 C32.99 17.67 33.98 17.34 35 17 C36.23024451 18.54530713 37.4336242 20.11203201 38.625 21.6875 C39.29789063 22.55761719 39.97078125 23.42773438 40.6640625 24.32421875 C42 27 42 27 41.6015625 29.28515625 C39.2347505 33.29719122 36.52529928 37.01234862 33.75 40.75 C32.6181039 42.2852154 31.48789147 43.82167358 30.359375 45.359375 C29.5230957 46.49342773 29.5230957 46.49342773 28.66992188 47.65039062 C26.43156281 50.7998011 24.38803551 54.06339145 22.36816406 57.35644531 C21.69092285 58.17000488 21.69092285 58.17000488 21 59 C20.01 59 19.02 59 18 59 C18.33 56.36 18.66 53.72 19 51 C13.79752437 47.22045372 8.58297602 43.45819303 3.36035156 39.70654297 C1.25683415 38.18569204 -0.83087399 36.64614881 -2.9140625 35.09765625 C-4.04653339 34.27296819 -5.17932179 33.44871589 -6.3125 32.625 C-7.29863281 31.89539063 -8.28476563 31.16578125 -9.30078125 30.4140625 C-11.90577129 28.75672663 -11.90577129 28.75672663 -14.79296875 29.1484375 C-17.17137172 29.78150924 -17.17137172 29.78150924 -18 32 C-18.99 31.67 -19.98 31.34 -21 31 C-16.17971688 23.04215077 -10.84658379 15.52532585 -5.35668945 8.02001953 C-4.80843506 7.26962402 -4.26018066 6.51922852 -3.6953125 5.74609375 C-3.20047363 5.07247803 -2.70563477 4.3988623 -2.19580078 3.70483398 C-0.94120608 2.00531982 -0.94120608 2.00531982 0 0 Z " fill="#326076" transform="translate(126,251)"/>
<path d="M0 0 C5.03495182 3.22996909 7.14980154 6.35202577 9 12 C9.4054103 14.32189536 9.76072994 16.65515344 10 19 C11.32 19.33 12.64 19.66 14 20 C14 20.99 14 21.98 14 23 C8.72 25.31 3.44 27.62 -2 30 C-2.495 28.515 -2.495 28.515 -3 27 C-2.21625 26.4225 -1.4325 25.845 -0.625 25.25 C3.09223112 22.0638019 3.86963997 20.43396035 4.3125 15.5625 C3.97496607 11.71461323 3.55090334 9.89102378 1 7 C-1.94729537 5.84188612 -1.94729537 5.84188612 -5 6 C-7.44002132 7.69740614 -7.96134074 8.84710044 -8.6953125 11.75 C-8.83710937 12.8225 -8.97890625 13.895 -9.125 15 C-9.36476563 16.73636719 -9.36476563 16.73636719 -9.609375 18.5078125 C-9.95894433 21.63296235 -10.18377737 24.73721046 -10.375 27.875 C-10.81238125 32.96048366 -11.86822725 35.93715967 -15 40 C-18.54046285 42.63476305 -21.19672114 43.21956366 -25.5 42.9375 C-29.84063464 42.23716231 -32.68837582 41.00356612 -36 38 C-39.22828565 33.29075162 -40.55634953 28.37806995 -41.41015625 22.78515625 C-41.70212891 21.90150391 -41.70212891 21.90150391 -42 21 C-42.99 20.67 -43.98 20.34 -45 20 C-45 19.01 -45 18.02 -45 17 C-42.71070947 15.82845707 -40.41881638 14.66261926 -38.125 13.5 C-37.47402344 13.16613281 -36.82304688 12.83226562 -36.15234375 12.48828125 C-31.2265625 10 -31.2265625 10 -29 10 C-29.35661766 13.20955896 -30.05879268 14.05438323 -32.5 16.3125 C-35.66176995 19.71140269 -36 21.38248476 -36 26 C-35.21544177 29.09382397 -34.18820033 32.03956868 -33 35 C-29.74360341 35.94271002 -29.74360341 35.94271002 -26 36 C-23.11385944 33.97589849 -21.32670378 32.32390057 -20.46313477 28.82446289 C-20.16482848 26.25481503 -19.99229099 23.70918537 -19.875 21.125 C-19.10002337 6.9450222 -19.10002337 6.9450222 -13.5 1.625 C-8.98115556 -1.31224889 -5.10638357 -1.39265007 0 0 Z " fill="#326076" transform="translate(1207,339)"/>
<path d="M0 0 C0.99 0 1.98 0 3 0 C4.85812283 2.13025735 6.52893524 4.2239097 8.1875 6.5 C8.65091797 7.12003906 9.11433594 7.74007812 9.59179688 8.37890625 C10.7364137 9.91292881 11.86932941 11.45566943 13 13 C12.67 13.66 12.34 14.32 12 15 C8 13 8 13 6.13671875 11.95703125 C2.4758751 10.31734808 -1.07923213 10.33144988 -5 11 C-8.2739971 12.85641749 -8.2739971 12.85641749 -10 16 C-10.10135489 19.71307604 -10.10135489 19.71307604 -9 23 C-3.85319492 25.57340254 3.06199167 23.88102313 8.5 22.9375 C15.2212257 21.84608601 20.97935609 21.13619844 26.9375 24.8125 C30.77277857 28.88021969 31.4558138 32.29397387 31.3125 37.7578125 C30.63095127 42.6479246 27.62270438 45.40497137 24.1875 48.6875 C21.66123963 50.52027713 19.99710424 51.49162625 17.1875 52.5625 C13.86798102 53.62741311 13.86798102 53.62741311 13.0625 56.1875 C13.041875 56.785625 13.02125 57.38375 13 58 C10.00607607 57.6628464 9.01168258 57.01189576 6.859375 54.8203125 C6.16328125 53.93085938 5.4671875 53.04140625 4.75 52.125 C4.04359375 51.24070313 3.3371875 50.35640625 2.609375 49.4453125 C1 47 1 47 1 44 C3.67076867 44.51360936 5.4202511 45.24281175 7.8125 46.625 C11.78294775 48.33774217 13.84460949 48.05773577 18 47 C20.81032409 45.68851543 22.50402728 44.65378222 24.375 42.1875 C25.25632729 39.10285448 24.92875936 37.05163791 24 34 C20.76240149 31.72553148 18.2790361 31.88793609 14.4375 32.3125 C13.38046875 32.41820312 12.3234375 32.52390625 11.234375 32.6328125 C9.16037694 32.86826639 7.0873236 33.11229265 5.015625 33.3671875 C-1.92760755 34.15357572 -6.96517167 34.17715945 -12.875 29.9375 C-15.72809551 25.99351503 -16.4027457 22.83294836 -16 18 C-14.69759487 13.43354249 -12.78255802 10.64646098 -9.125 7.625 C-6.122263 6.06357676 -3.25060298 4.92874371 0 4 C0 2.68 0 1.36 0 0 Z " fill="#326076" transform="translate(246,127)"/>
<path d="M0 0 C7.63054095 0.61044328 14.70189474 2.79621821 22 5 C22 5.66 22 6.32 22 7 C19.69 7.33 17.38 7.66 15 8 C13.80740731 12.07620207 12.65090322 16.16184958 11.5 20.25 C11.16613281 21.38953125 10.83226562 22.5290625 10.48828125 23.703125 C8.43790478 31.06774252 6.86794668 38.33333631 8 46 C10.16425728 48.7867017 10.16425728 48.7867017 13 50 C13.66 50.33 14.32 50.66 15 51 C19.58363105 51.4948699 23.64210063 51.61991058 27.875 49.6875 C34.79503345 40.93569299 39 23.14356808 39 12 C36.525 11.505 36.525 11.505 34 11 C34 10.01 34 9.02 34 8 C40.1112924 9.0388092 46.07704464 10.15730278 52 12 C52 12.66 52 13.32 52 14 C50.34871094 14.24169922 50.34871094 14.24169922 48.6640625 14.48828125 C44.66034991 15.64704987 44.66034991 15.64704987 43.3984375 19.60546875 C43.02888229 21.12618843 42.68934912 22.65441682 42.375 24.1875 C41.97954812 25.82103816 41.58105656 27.45384315 41.1796875 29.0859375 C40.88916504 30.31908691 40.88916504 30.31908691 40.59277344 31.57714844 C39.70537871 35.20420994 38.64087815 38.75815661 37.5 42.3125 C36.95859375 44.07013672 36.95859375 44.07013672 36.40625 45.86328125 C34.49575862 50.1247384 31.92413984 52.7326025 28.04296875 55.2890625 C22.0353704 57.37966078 14.89032749 56.72177617 9.0625 54.375 C4.35601657 51.98332058 1.37439499 48.74878998 -1 44 C-1.50187812 36.31499125 0.06274376 29.65869616 2 22.25 C2.56770856 20.04821141 3.13040656 17.84512334 3.6875 15.640625 C3.93886719 14.67672852 4.19023438 13.71283203 4.44921875 12.71972656 C4.99660148 10.01678169 5.29028392 7.74461067 5 5 C2.55503957 3.28288757 2.55503957 3.28288757 0 2 C0 1.34 0 0.68 0 0 Z " fill="#326076" transform="translate(771,7)"/>
<path d="M0 0 C0.66 0 1.32 0 2 0 C2.28875 0.969375 2.5775 1.93875 2.875 2.9375 C3.64214682 6.10664203 3.64214682 6.10664203 6 7 C8.22756155 7.24609146 10.46077333 7.44174058 12.6953125 7.61328125 C14.0651665 7.72777221 15.43495642 7.84303206 16.8046875 7.95898438 C18.95657348 8.13749421 21.10838546 8.31126416 23.26171875 8.47143555 C38.4364589 9.6162028 38.4364589 9.6162028 45 14 C49.74624354 19.9675381 49.80179474 26.64526549 49 34 C47.75167711 40.26224786 45.1705688 43.36960063 40 47 C36.77396455 48.61301773 33.25289962 48.12053599 29.7109375 48.09765625 C28.48330185 48.09553383 28.48330185 48.09553383 27.23086548 48.09336853 C24.61220675 48.0877629 21.99363296 48.07520948 19.375 48.0625 C17.60156373 48.05748572 15.82812613 48.05292269 14.0546875 48.04882812 C9.70309218 48.03779164 5.3515605 48.02052325 1 48 C0.01 50.475 0.01 50.475 -1 53 C-1.66 53 -2.32 53 -3 53 C-3.09377123 45.58165418 -3.17402193 38.33763707 -2 31 C-1.34 31 -0.68 31 0 31 C0.33 33.31 0.66 35.62 1 38 C5.39098067 38.36326188 9.78300398 38.70201123 14.17749023 39.01928711 C15.66855079 39.13026699 17.15915081 39.24764421 18.64916992 39.37182617 C30.78800996 40.78275252 30.78800996 40.78275252 42 37 C44.58550999 32.7573132 44.52122113 28.8423124 44 24 C42.71380059 19.9144254 41.86655446 18.47468057 38.09765625 16.41015625 C33.07719905 14.39288657 27.84845229 14.18572746 22.5 13.8125 C21.49324219 13.73064453 20.48648437 13.64878906 19.44921875 13.56445312 C14.28515363 13.1617508 9.17903767 12.90543892 4 13 C3.01 14.98 2.02 16.96 1 19 C0.34 19 -0.32 19 -1 19 C-1.10349817 12.58311325 -0.74507544 6.37305598 0 0 Z " fill="#326077" transform="translate(4,561)"/>
<path d="M0 0 C3.43453198 1.53796908 6.14389276 3.5735602 9.0625 5.9375 C10.34833984 6.97197266 10.34833984 6.97197266 11.66015625 8.02734375 C13.54469703 9.61614692 15.29868089 11.22058755 17 13 C13.9296875 13.76757812 13.9296875 13.76757812 10.859375 14.53515625 C9.93898438 14.76525391 9.93898438 14.76525391 9 15 C7.85740642 19.09252102 6.71816125 23.18595462 5.58203125 27.28027344 C5.19493395 28.67343402 4.80691736 30.06633951 4.41796875 31.45898438 C3.85956715 33.45897379 3.30446106 35.45985258 2.75 37.4609375 C2.41484375 38.66540527 2.0796875 39.86987305 1.734375 41.11083984 C0.91788359 43.82622167 0.91788359 43.82622167 1 46 C4.54422765 44.08804162 8.08490487 42.16959761 11.625 40.25 C12.62402344 39.71117187 13.62304688 39.17234375 14.65234375 38.6171875 C19.59057786 35.93549745 24.40140629 33.23314097 29 30 C28.505 26.535 28.505 26.535 28 23 C31.83663072 24.34929464 34.65172569 26.07751025 37.8125 28.625 C38.60269531 29.25664062 39.39289063 29.88828125 40.20703125 30.5390625 C40.79871094 31.02117187 41.39039063 31.50328125 42 32 C41.505 32.99 41.505 32.99 41 34 C39.61748047 33.81824219 39.61748047 33.81824219 38.20703125 33.6328125 C32.35393298 33.64749296 27.6249599 37.05169026 22.6875 39.875 C21.63602783 40.45910645 20.58455566 41.04321289 19.5012207 41.64501953 C14.49003713 44.43462525 9.51038894 47.27872707 4.53125 50.125 C3.70794189 50.59180176 2.88463379 51.05860352 2.03637695 51.53955078 C0.50028079 52.41289514 -1.03014188 53.29631464 -2.55395508 54.19091797 C-4.32761944 55.20401991 -6.16006492 56.11292634 -8 57 C-8.99 56.67 -9.98 56.34 -11 56 C-10.67201416 54.77482666 -10.34402832 53.54965332 -10.00610352 52.28735352 C-8.78257069 47.70998646 -7.56765118 43.13036897 -6.35522461 38.55004883 C-5.83085325 36.57384548 -5.30419649 34.59824699 -4.77514648 32.62329102 C-4.01193715 29.77258547 -3.25717046 26.91975363 -2.50390625 24.06640625 C-2.26845596 23.19415909 -2.03300568 22.32191193 -1.79042053 21.42323303 C1.34598235 11.02432017 1.34598235 11.02432017 -1 1 C-0.67 0.67 -0.34 0.34 0 0 Z " fill="#326076" transform="translate(1017,116)"/>
<path d="M0 0 C0.66 0 1.32 0 2 0 C2.22042969 1.18464844 2.44085938 2.36929687 2.66796875 3.58984375 C3.8515523 8.28599785 6.05965982 11.06926636 9.3125 14.5625 C10.39338185 15.77199899 11.47410526 16.98163958 12.5546875 18.19140625 C13.11768555 18.81160645 13.68068359 19.43180664 14.26074219 20.07080078 C17.20436341 23.33588991 20.06533528 26.67213339 22.9375 30 C23.98827665 31.20833733 25.03905771 32.41667083 26.08984375 33.625 C26.57565918 34.18960938 27.06147461 34.75421875 27.56201172 35.3359375 C28.5279433 36.45372862 29.50374592 37.56305874 30.48876953 38.6640625 C34 42.66984984 34 42.66984984 34 46 C26.19183971 46.1363836 18.46852863 45.97143354 10.6796875 45.45703125 C9.88024719 45.40561981 9.08080688 45.35420837 8.25714111 45.30123901 C4.95094067 45.08666163 1.64525864 44.86852556 -1.65917969 44.62817383 C-4.10800294 44.45241075 -6.55743505 44.29685781 -9.0078125 44.14453125 C-9.75257843 44.08529984 -10.49734436 44.02606842 -11.26467896 43.96504211 C-15.67276179 43.70974121 -17.67221857 44.14823475 -21 47 C-21.99 46.67 -22.98 46.34 -24 46 C-19.545 37.09 -19.545 37.09 -15 28 C-14.01 28.33 -13.02 28.66 -12 29 C-12.33 30.98 -12.66 32.96 -13 35 C-8.98000517 35.28752483 -4.95982309 35.57225991 -0.93945312 35.85449219 C0.42616008 35.95074402 1.79172124 36.04773737 3.15722656 36.14550781 C5.12811416 36.28649101 7.09921216 36.42452298 9.0703125 36.5625 C10.25383301 36.64628906 11.43735352 36.73007812 12.65673828 36.81640625 C15.7798138 36.98790857 18.87308068 37.03330939 22 37 C21.45472656 36.40574219 20.90945312 35.81148438 20.34765625 35.19921875 C15.36248782 29.7197943 10.58312694 24.12414556 5.9453125 18.34765625 C3.62404097 15.52408049 3.62404097 15.52408049 1 13 C-0.98491642 13.26676204 -0.98491642 13.26676204 -3 14 C-4.32 14 -5.64 14 -7 14 C-4.69 9.38 -2.38 4.76 0 0 Z " fill="#326077" transform="translate(82,319)"/>
<path d="M0 0 C0.66 0 1.32 0 2 0 C2.70776992 7.35575165 3.14715692 14.6094524 3 22 C2.34 22 1.68 22 1 22 C0.34 20.35 -0.32 18.7 -1 17 C-5.55779057 19.11465058 -9.39093924 21.63305342 -13.375 24.6875 C-13.92027344 25.10322266 -14.46554687 25.51894531 -15.02734375 25.94726562 C-16.35494102 26.96043196 -17.67796114 27.97959136 -19 29 C-15.99785011 31.35933662 -12.90426153 33.28031056 -9.5625 35.125 C-8.63566406 35.64320313 -7.70882813 36.16140625 -6.75390625 36.6953125 C-4.12221702 37.94209861 -1.86727 38.57329194 1 39 C1.33 37.35 1.66 35.7 2 34 C4 36 4 36 4.1953125 39.6953125 C4.182009 41.17200108 4.15814835 42.64862358 4.125 44.125 C4.11597656 44.87910156 4.10695313 45.63320313 4.09765625 46.41015625 C4.0740687 48.27357254 4.03819719 50.13682593 4 52 C3.34 52 2.68 52 2 52 C1.72285156 51.14019531 1.44570312 50.28039062 1.16015625 49.39453125 C-1.37706558 44.32455716 -6.76700005 42.25298065 -11.5625 39.6875 C-12.53380859 39.15060547 -13.50511719 38.61371094 -14.50585938 38.06054688 C-21.06251708 34.16002897 -21.06251708 34.16002897 -28.3515625 32.90234375 C-29.62773438 32.90717773 -29.62773438 32.90717773 -30.9296875 32.91210938 C-31.81914063 32.92048828 -32.70859375 32.92886719 -33.625 32.9375 C-34.97078125 32.94426758 -34.97078125 32.94426758 -36.34375 32.95117188 C-38.56256648 32.96297409 -40.78125018 32.97943845 -43 33 C-43.33 34.98 -43.66 36.96 -44 39 C-44.66 39 -45.32 39 -46 39 C-46.74805717 31.97360585 -47.13794954 25.06608191 -47 18 C-46.34 18 -45.68 18 -45 18 C-44.690625 19.2065625 -44.690625 19.2065625 -44.375 20.4375 C-43.2520976 23.21657994 -43.2520976 23.21657994 -40.5625 23.875 C-29.44877817 24.26495515 -23.6544564 22.28516177 -15 15.125 C-13.60974609 14.02478516 -13.60974609 14.02478516 -12.19140625 12.90234375 C-4.95898101 7.40035236 -4.95898101 7.40035236 0 0 Z " fill="#326177" transform="translate(1276,568)"/>
<path d="M0 0 C1.16796875 1.7421875 1.16796875 1.7421875 2.1875 3.875 C2.53167969 4.57367188 2.87585938 5.27234375 3.23046875 5.9921875 C4 8 4 8 4 11 C1.53199953 9.84826645 -0.04783565 8.95216435 -2 7 C-6.0630058 7.38330243 -10.00390364 8.19527836 -14 9 C-5.31839215 28.15258902 -5.31839215 28.15258902 4 47 C6.31 46.67 8.62 46.34 11 46 C11 46.99 11 47.98 11 49 C8.2336466 50.34277732 5.46123789 51.67255228 2.6875 53 C1.90181641 53.3815625 1.11613281 53.763125 0.30664062 54.15625 C-0.8293457 54.69765625 -0.8293457 54.69765625 -1.98828125 55.25 C-2.68477783 55.58515625 -3.38127441 55.9203125 -4.09887695 56.265625 C-6 57 -6 57 -9 57 C-9 56.34 -9 55.68 -9 55 C-8.01 54.34 -7.02 53.68 -6 53 C-6.51990324 47.75522957 -7.83290006 43.56891614 -10.16015625 38.82421875 C-10.62415077 37.8473687 -10.62415077 37.8473687 -11.09751892 36.8507843 C-12.07700027 34.7919862 -13.06892853 32.73953023 -14.0625 30.6875 C-15.05762844 28.61673888 -16.05001667 26.54474532 -17.03819275 24.47065735 C-17.65134509 23.18529116 -18.26885204 21.9019913 -18.89112854 20.62101746 C-21 16.22248565 -21 16.22248565 -21 14 C-21.55429687 14.28875 -22.10859375 14.5775 -22.6796875 14.875 C-23.40414063 15.24625 -24.12859375 15.6175 -24.875 16 C-25.59429687 16.37125 -26.31359375 16.7425 -27.0546875 17.125 C-29 18 -29 18 -31 18 C-31 21.3 -31 24.6 -31 28 C-31.99 28 -32.98 28 -34 28 C-34.67354499 26.56570999 -35.33859701 25.12742943 -36 23.6875 C-36.37125 22.88699219 -36.7425 22.08648437 -37.125 21.26171875 C-38 19 -38 19 -38 16 C-33.0765628 13.54796498 -28.14697505 11.10895185 -23.21118164 8.68188477 C-21.53233389 7.85407331 -19.85523534 7.02270467 -18.17993164 6.18774414 C-15.77418709 4.98949967 -13.36248102 3.80410924 -10.94921875 2.62109375 C-10.19912033 2.24407822 -9.44902191 1.86706268 -8.67619324 1.47862244 C-3.34161512 -1.11387171 -3.34161512 -1.11387171 0 0 Z " fill="#326076" transform="translate(384,48)"/>
<path d="M0 0 C1.13764351 4.26616316 2 7.56486311 2 12 C-1 11 -1 11 -2.0625 9 C-2.371875 8.34 -2.68125 7.68 -3 7 C-5.64458379 5.67770811 -7.67761301 5.90322806 -10.625 5.9375 C-12.12933594 5.95103516 -12.12933594 5.95103516 -13.6640625 5.96484375 C-14.82035156 5.98224609 -14.82035156 5.98224609 -16 6 C-15.02417177 11.35736159 -14.0455088 16.71419457 -13.06420898 22.07055664 C-12.73074524 23.89300497 -12.39805814 25.71559559 -12.06616211 27.53833008 C-11.58911729 30.15744164 -11.10928669 32.77602971 -10.62890625 35.39453125 C-10.48095108 36.21025101 -10.33299591 37.02597076 -10.18055725 37.8664093 C-9.60491299 40.99208917 -9.00647587 43.9805724 -8 47 C-5.03 47.495 -5.03 47.495 -2 48 C-2 48.66 -2 49.32 -2 50 C-8.98144819 51.69214979 -15.84404654 53.29843593 -23 54 C-23 53.01 -23 52.02 -23 51 C-20.525 50.505 -20.525 50.505 -18 50 C-19.53942797 38.68776185 -21.17616073 27.44043948 -23.44921875 16.25 C-24 13 -24 13 -24 8 C-27.96 8.99 -31.92 9.98 -36 11 C-36.33 13.64 -36.66 16.28 -37 19 C-37.99 19 -38.98 19 -40 19 C-40.33 14.71 -40.66 10.42 -41 6 C-36.28743843 5.13768035 -31.57350281 4.28347128 -26.8581543 3.43652344 C-25.2565211 3.14769639 -23.65527501 2.85671363 -22.05444336 2.56347656 C-19.74432888 2.14071051 -17.43290186 1.72589171 -15.12109375 1.3125 C-14.41351425 1.18125732 -13.70593475 1.05001465 -12.97691345 0.91479492 C-8.56044288 0.13481193 -4.46067299 -0.12228001 0 0 Z " fill="#326077" transform="translate(550,0)"/>
<path d="M0 0 C2.28334864 3.42502296 2.84414512 6.06690649 3.7265625 10.08203125 C3.87910492 10.7738298 4.03164734 11.46562836 4.18881226 12.1783905 C4.5095582 13.64110777 4.82708013 15.1045352 5.14160156 16.56860352 C5.62143693 18.79596053 6.11464024 21.02005163 6.609375 23.24414062 C6.92008267 24.66909406 7.230004 26.09421922 7.5390625 27.51953125 C7.68590485 28.17911331 7.83274719 28.83869537 7.98403931 29.51826477 C8.80913601 33.40970674 9.14329606 37.02564164 9 41 C4.8803623 42.29243536 1.33168317 43.26252625 -3 43 C-3 42.34 -3 41.68 -3 41 C-2.195625 40.566875 -1.39125 40.13375 -0.5625 39.6875 C2.13802615 38.25883351 2.13802615 38.25883351 2.875 35.8125 C2.98439133 33.35119514 2.83031113 31.25288152 2.5078125 28.82421875 C2.25644531 26.93123047 2.25644531 26.93123047 2 25 C1.29093506 25.16604736 0.58187012 25.33209473 -0.14868164 25.50317383 C-26.20123904 31.5923123 -26.20123904 31.5923123 -39 34 C-39 36.31 -39 38.62 -39 41 C-39.99 40.67 -40.98 40.34 -42 40 C-43.32 33.4 -44.64 26.8 -46 20 C-45.01 20 -44.02 20 -43 20 C-42.34 21.32 -41.68 22.64 -41 24 C-35.82962518 24.16460545 -31.12291934 23.59087929 -26.09765625 22.46875 C-25.3750914 22.31337769 -24.65252655 22.15800537 -23.9080658 21.9979248 C-21.62469312 21.50533233 -19.34363377 21.00284741 -17.0625 20.5 C-15.50470009 20.16210142 -13.94675847 19.82485543 -12.38867188 19.48828125 C-8.59076838 18.66638791 -4.79490543 17.83562211 -1 17 C-1.22504336 15.37435292 -1.4777402 13.75251635 -1.7421875 12.1328125 C-1.87995605 11.22934082 -2.01772461 10.32586914 -2.15966797 9.39501953 C-2.78127111 6.8780347 -2.78127111 6.8780347 -4.89892578 5.67138672 C-7.3640376 4.73876765 -7.3640376 4.73876765 -11 4 C-11 3.34 -11 2.68 -11 2 C-5.555 1.01 -5.555 1.01 0 0 Z " fill="#326077" transform="translate(1261,479)"/>
<path d="M0 0 C2.0625 0.0625 2.0625 0.0625 4 1 C4.65742187 1.75023437 4.65742187 1.75023437 5.328125 2.515625 C7.46898666 4.41639003 8.86344194 4.48285811 11.6875 4.6875 C12.49574219 4.75324219 13.30398438 4.81898437 14.13671875 4.88671875 C14.75160156 4.92410156 15.36648438 4.96148438 16 5 C16.02578125 5.60328125 16.0515625 6.2065625 16.078125 6.828125 C16.45359342 12.11881635 16.9513909 14.35625181 21 18 C20.9375 20.0625 20.9375 20.0625 20 22 C19.505 22.4125 19.01 22.825 18.5 23.25 C16.0451213 26.11402515 16.30301288 29.30324285 16 33 C14.1746875 33.0928125 14.1746875 33.0928125 12.3125 33.1875 C7.77919772 33.70719074 6.11184902 35.71527048 3 39 C0.9375 39.0625 0.9375 39.0625 -1 38 C-1.5775 37.34 -2.155 36.68 -2.75 36 C-6.02231037 33.09127967 -8.68414862 33.28772343 -13 33 C-13.0825 31.7625 -13.165 30.525 -13.25 29.25 C-13.72178442 25.18979468 -15.01122816 23.78952038 -18 21 C-17.9375 18.9375 -17.9375 18.9375 -17 17 C-16.24976563 16.34257813 -16.24976563 16.34257813 -15.484375 15.671875 C-13.58360997 13.53101334 -13.51714189 12.13655806 -13.3125 9.3125 C-13.24675781 8.50425781 -13.18101562 7.69601563 -13.11328125 6.86328125 C-13.07589844 6.24839844 -13.03851562 5.63351563 -13 5 C-12.09507812 4.96132812 -12.09507812 4.96132812 -11.171875 4.921875 C-5.88118365 4.54640658 -3.64374819 4.0486091 0 0 Z M1 7 C0.608125 7.474375 0.21625 7.94875 -0.1875 8.4375 C-2.40808374 10.35179633 -4.13375709 10.61266988 -7 11 C-7.28875 11.928125 -7.5775 12.85625 -7.875 13.8125 C-9 17 -9 17 -11 20 C-10.525625 20.391875 -10.05125 20.78375 -9.5625 21.1875 C-7.64820367 23.40808374 -7.38733012 25.13375709 -7 28 C-6.071875 28.28875 -5.14375 28.5775 -4.1875 28.875 C-1 30 -1 30 2 32 C2.391875 31.525625 2.78375 31.05125 3.1875 30.5625 C5.40808374 28.64820367 7.13375709 28.38733012 10 28 C10.28875 27.071875 10.5775 26.14375 10.875 25.1875 C12 22 12 22 14 19 C13.525625 18.608125 13.05125 18.21625 12.5625 17.8125 C10.64820367 15.59191626 10.38733012 13.86624291 10 11 C9.071875 10.71125 8.14375 10.4225 7.1875 10.125 C4 9 4 9 1 7 Z " fill="#315F74" transform="translate(661,5)"/>
<path d="M0 0 C0.66 0 1.32 0 2 0 C2 1.98 2 3.96 2 6 C8.54689531 9.50755872 15.30460605 12.12343548 22.29174805 14.62915039 C24.19863403 15.31651341 26.09809955 16.02223458 27.99804688 16.72851562 C29.20912109 17.16486328 30.42019531 17.60121094 31.66796875 18.05078125 C33.31188599 18.64886597 33.31188599 18.64886597 34.98901367 19.2590332 C38.13069681 20.03216288 39.92998349 19.90722033 43 19 C43.495 17.515 43.495 17.515 44 16 C44.99 16 45.98 16 47 16 C44.96192707 23.1178153 42.59655258 30.06707281 40 37 C39.34 37 38.68 37 38 37 C37.505 33.535 37.505 33.535 37 30 C28.66688634 26.59949174 20.29682243 23.29961156 11.875 20.125 C10.66783325 19.65984985 10.66783325 19.65984985 9.4362793 19.18530273 C3.87971959 17.04968212 3.87971959 17.04968212 -2 17 C-3.70532323 18.94009522 -3.70532323 18.94009522 -5 21 C-5.66 21 -6.32 21 -7 21 C-5.62820313 13.51747162 -3.07836721 6.94395046 0 0 Z " fill="#326076" transform="translate(42,406)"/>
<path d="M0 0 C6.73844784 3.21984946 13.08009664 6.42552922 19 11 C18.34 11.66 17.68 12.32 17 13 C13.875 12.625 13.875 12.625 11 12 C8.3030304 16.460153 5.61577272 20.92595767 2.93725586 25.3972168 C2.02517493 26.91670379 1.11048424 28.43462749 0.19311523 29.95092773 C-1.12689401 32.13377228 -2.43734058 34.32211172 -3.74609375 36.51171875 C-4.15653427 37.18587326 -4.56697479 37.86002777 -4.98985291 38.55461121 C-7.04214426 42.00975044 -8.53703435 44.98199885 -9 49 C-8.01 49.66 -7.02 50.32 -6 51 C-6 51.99 -6 52.98 -6 54 C-10.39383706 52.40376856 -14.28995807 50.21975667 -18.3125 47.875 C-18.95767578 47.50246094 -19.60285156 47.12992188 -20.26757812 46.74609375 C-21.84675945 45.83367787 -23.42361864 44.91724491 -25 44 C-25 43.01 -25 42.02 -25 41 C-22.69 41.33 -20.38 41.66 -18 42 C-12.77554097 34.09236202 -7.73489152 26.07453565 -2.875 17.9375 C-2.37766357 17.12885498 -1.88032715 16.32020996 -1.36791992 15.48706055 C1.30055184 11.09963734 1.30055184 11.09963734 1.9296875 6.12890625 C0.974275 3.7714448 0.974275 3.7714448 -1 1 C-0.67 0.67 -0.34 0.34 0 0 Z " fill="#325F75" transform="translate(959,78)"/>
<path d="M0 0 C0 0.66 0 1.32 0 2 C-0.99 2.66 -1.98 3.32 -3 4 C-2.4853597 8.80880971 -1.15168515 11.85110576 1.4921875 15.87890625 C2.19730469 16.96494141 2.90242188 18.05097656 3.62890625 19.16992188 C4.37728588 20.30099191 5.12598661 21.43184955 5.875 22.5625 C6.6168363 23.69664423 7.35773069 24.83140514 8.09765625 25.96679688 C9.46238034 28.05862806 10.8315277 30.14758506 12.20654297 32.23266602 C13.39205415 34.06192946 14.5183398 35.93110373 15.57861328 37.83569336 C16.0476709 38.54991455 16.51672852 39.26413574 17 40 C20.15860793 40.47379119 21.95729435 40.01423522 25 39 C25 39.99 25 40.98 25 42 C23.57885742 43.25854492 23.57885742 43.25854492 21.60546875 44.48046875 C20.89712891 44.92197266 20.18878906 45.36347656 19.45898438 45.81835938 C18.70939453 46.27017578 17.95980469 46.72199219 17.1875 47.1875 C16.44951172 47.65091797 15.71152344 48.11433594 14.95117188 48.59179688 C9.4046852 52 9.4046852 52 6 52 C6 51.34 6 50.68 6 50 C6.99 49.34 7.98 48.68 9 48 C8.50566954 42.70961231 5.7022262 38.82164459 2.9375 34.4375 C2.44233887 33.64480713 1.94717773 32.85211426 1.43701172 32.03540039 C0.43538355 30.43781155 -0.5701105 28.84263949 -1.57958984 27.25 C-2.84869771 25.23967031 -4.09364497 23.21682046 -5.33203125 21.1875 C-6.34330078 19.57875 -6.34330078 19.57875 -7.375 17.9375 C-7.96023438 16.99777344 -8.54546875 16.05804688 -9.1484375 15.08984375 C-10.85652098 12.81614441 -10.85652098 12.81614441 -13.5390625 12.12890625 C-16.13668289 11.84255 -16.13668289 11.84255 -19 13 C-18.62194429 10.6291845 -18.38387932 9.34061982 -16.55712891 7.71972656 C-15.65099854 7.18557129 -15.65099854 7.18557129 -14.7265625 6.640625 C-14.0665625 6.24746094 -13.4065625 5.85429688 -12.7265625 5.44921875 C-12.03304688 5.05347656 -11.33953125 4.65773438 -10.625 4.25 C-9.93921875 3.83878906 -9.2534375 3.42757812 -8.546875 3.00390625 C-3.41728094 0 -3.41728094 0 0 0 Z " fill="#326177" transform="translate(308,88)"/>
<path d="M0 0 C0.66 0 1.32 0 2 0 C3.17192435 3.12305373 4.33663876 6.24874739 5.5 9.375 C5.83386719 10.26445312 6.16773438 11.15390625 6.51171875 12.0703125 C6.98544922 13.34648437 6.98544922 13.34648437 7.46875 14.6484375 C7.76201172 15.43395996 8.05527344 16.21948242 8.35742188 17.02880859 C9 19 9 19 9 21 C8.01 21 7.02 21 6 21 C5.34 19.68 4.68 18.36 4 17 C-1.06450759 17.57633551 -5.60004732 18.71658702 -10.39453125 20.46875 C-11.06796066 20.70911987 -11.74139008 20.94948975 -12.43522644 21.19714355 C-14.56326407 21.95857717 -16.68781309 22.72927314 -18.8125 23.5 C-20.25695344 24.01750805 -21.70161324 24.53444052 -23.14648438 25.05078125 C-29.67937587 27.27407124 -29.67937587 27.27407124 -36 30 C-36 32.31 -36 34.62 -36 37 C-39 36 -39 36 -39.89135742 34.37353516 C-40.12701416 33.68565918 -40.3626709 32.9977832 -40.60546875 32.2890625 C-40.86650391 31.53882813 -41.12753906 30.78859375 -41.39648438 30.015625 C-41.65751953 29.22671875 -41.91855469 28.4378125 -42.1875 27.625 C-42.46013672 26.84382813 -42.73277344 26.06265625 -43.01367188 25.2578125 C-45 19.44319784 -45 19.44319784 -45 16 C-44.01 16.33 -43.02 16.66 -42 17 C-41.3125 19.0625 -41.3125 19.0625 -41 21 C-33.2117323 19.27037202 -25.76505003 16.57714507 -18.25 13.9375 C-16.27681625 13.24657218 -14.30328442 12.55668261 -12.32904053 11.86878967 C-10.54832612 11.24803095 -8.76875836 10.62398579 -6.98925781 9.99975586 C-4.6636137 9.22194529 -2.38874845 8.5409383 0 8 C0 5.36 0 2.72 0 0 Z " fill="#326076" transform="translate(1239,411)"/>
<path d="M0 0 C2.5 0.25 2.5 0.25 4.5 2.25 C4.8125 4.75 4.8125 4.75 4.5 7.25 C1.5 9.25 1.5 9.25 -1.1875 8.875 C-1.950625 8.66875 -2.71375 8.4625 -3.5 8.25 C-4.125 5.375 -4.125 5.375 -4.5 2.25 C-2.5 0.25 -2.5 0.25 0 0 Z " fill="#336178" transform="translate(30.5,408.75)"/>
<path d="M0 0 C3 0.125 3 0.125 4 1.125 C4.125 4.125 4.125 4.125 4 7.125 C3 8.125 3 8.125 0 8.25 C-3 8.125 -3 8.125 -4 7.125 C-4.125 4.125 -4.125 4.125 -4 1.125 C-3 0.125 -3 0.125 0 0 Z " fill="#336178" transform="translate(293,81.875)"/>
</svg>
